<svg width="31" height="26" viewBox="0 0 31 26" fill="none" xmlns="http://www.w3.org/2000/svg">
<path id="Vector" d="M30.5005 13.5C30.5005 12.1753 30.1247 10.8777 29.4167 9.75812C28.7086 8.63849 27.6974 7.74277 26.5005 7.17503V6.00003C26.4996 4.71145 26.0839 3.45738 25.3149 2.42342C24.5458 1.38946 23.4644 0.630551 22.2305 0.258993C20.9967 -0.112565 19.676 -0.0770251 18.4639 0.360353C17.2518 0.797731 16.2127 1.61371 15.5005 2.68753C14.7882 1.61371 13.7491 0.797731 12.537 0.360353C11.3249 -0.0770251 10.0042 -0.112565 8.77037 0.258993C7.53652 0.630551 6.45507 1.38946 5.68606 2.42342C4.91704 3.45738 4.50134 4.71145 4.50045 6.00003V7.17503C3.30337 7.74264 2.29194 8.6383 1.58371 9.75793C0.875474 10.8776 0.499512 12.1752 0.499512 13.5C0.499512 14.8249 0.875474 16.1225 1.58371 17.2421C2.29194 18.3618 3.30337 19.2574 4.50045 19.825V20C4.50134 21.2886 4.91704 22.5427 5.68606 23.5766C6.45507 24.6106 7.53652 25.3695 8.77037 25.7411C10.0042 26.1126 11.3249 26.0771 12.537 25.6397C13.7491 25.2023 14.7882 24.3864 15.5005 23.3125C16.2127 24.3864 17.2518 25.2023 18.4639 25.6397C19.676 26.0771 20.9967 26.1126 22.2305 25.7411C23.4644 25.3695 24.5458 24.6106 25.3149 23.5766C26.0839 22.5427 26.4996 21.2886 26.5005 20V19.825C27.6964 19.2561 28.7068 18.3601 29.4147 17.2407C30.1226 16.1214 30.499 14.8244 30.5005 13.5V13.5ZM10.5005 24C9.51358 23.9994 8.56175 23.6341 7.82798 22.9741C7.09422 22.3142 6.63031 21.4063 6.52545 20.425C6.84795 20.4758 7.17398 20.5009 7.50045 20.5H8.50045C8.76567 20.5 9.02002 20.3947 9.20756 20.2071C9.39509 20.0196 9.50045 19.7652 9.50045 19.5C9.50045 19.2348 9.39509 18.9805 9.20756 18.7929C9.02002 18.6054 8.76567 18.5 8.50045 18.5H7.50045C6.3221 18.498 5.18232 18.0799 4.2822 17.3195C3.38207 16.559 2.77945 15.5051 2.58064 14.3436C2.38183 13.1822 2.59961 11.9878 3.19557 10.9713C3.79152 9.95473 4.72735 9.18134 5.83795 8.78753C6.03228 8.71594 6.19999 8.58648 6.31845 8.41661C6.43691 8.24674 6.50043 8.04463 6.50045 7.83753V6.00003C6.50045 4.93916 6.92188 3.92175 7.67202 3.1716C8.42217 2.42146 9.43959 2.00003 10.5005 2.00003C11.5613 2.00003 12.5787 2.42146 13.3289 3.1716C14.079 3.92175 14.5005 4.93916 14.5005 6.00003V15.5375C13.4056 14.5439 11.9789 13.9955 10.5005 14C10.2352 14 9.98088 14.1054 9.79334 14.2929C9.60581 14.4805 9.50045 14.7348 9.50045 15C9.50045 15.2652 9.60581 15.5196 9.79334 15.7071C9.98088 15.8947 10.2352 16 10.5005 16C11.5613 16 12.5787 16.4215 13.3289 17.1716C14.079 17.9217 14.5005 18.9392 14.5005 20C14.5005 21.0609 14.079 22.0783 13.3289 22.8285C12.5787 23.5786 11.5613 24 10.5005 24ZM23.5005 18.5H22.5005C22.2352 18.5 21.9809 18.6054 21.7933 18.7929C21.6058 18.9805 21.5005 19.2348 21.5005 19.5C21.5005 19.7652 21.6058 20.0196 21.7933 20.2071C21.9809 20.3947 22.2352 20.5 22.5005 20.5H23.5005C23.8269 20.5009 24.153 20.4758 24.4755 20.425C24.3933 21.1938 24.0902 21.9222 23.6027 22.5222C23.1152 23.1223 22.4643 23.5682 21.7287 23.806C20.9931 24.0439 20.2043 24.0634 19.4578 23.8624C18.7113 23.6613 18.0391 23.2482 17.5224 22.6731C17.0058 22.098 16.6669 21.3855 16.5467 20.6217C16.4265 19.858 16.5303 19.0759 16.8453 18.3699C17.1604 17.6639 17.6733 17.0643 18.322 16.6438C18.9707 16.2232 19.7274 15.9996 20.5005 16C20.7657 16 21.02 15.8947 21.2076 15.7071C21.3951 15.5196 21.5005 15.2652 21.5005 15C21.5005 14.7348 21.3951 14.4805 21.2076 14.2929C21.02 14.1054 20.7657 14 20.5005 14C19.022 13.9955 17.5953 14.5439 16.5005 15.5375V6.00003C16.5005 4.93916 16.9219 3.92175 17.672 3.1716C18.4222 2.42146 19.4396 2.00003 20.5005 2.00003C21.5613 2.00003 22.5787 2.42146 23.3289 3.1716C24.079 3.92175 24.5005 4.93916 24.5005 6.00003V7.83753C24.5005 8.04463 24.564 8.24674 24.6825 8.41661C24.8009 8.58648 24.9686 8.71594 25.163 8.78753C26.2736 9.18134 27.2094 9.95473 27.8053 10.9713C28.4013 11.9878 28.6191 13.1822 28.4203 14.3436C28.2215 15.5051 27.6188 16.559 26.7187 17.3195C25.8186 18.0799 24.6788 18.498 23.5005 18.5V18.5ZM7.00045 13C6.73523 13 6.48088 12.8947 6.29334 12.7071C6.10581 12.5196 6.00045 12.2652 6.00045 12C6.00045 11.7348 6.10581 11.4805 6.29334 11.2929C6.48088 11.1054 6.73523 11 7.00045 11C7.66248 10.9967 8.29646 10.7323 8.76459 10.2642C9.23272 9.79603 9.49717 9.16206 9.50045 8.50003V7.50003C9.50045 7.23481 9.60581 6.98046 9.79334 6.79292C9.98088 6.60539 10.2352 6.50003 10.5005 6.50003C10.7657 6.50003 11.02 6.60539 11.2076 6.79292C11.3951 6.98046 11.5005 7.23481 11.5005 7.50003V8.50003C11.5005 9.6935 11.0263 10.8381 10.1824 11.682C9.33852 12.5259 8.19393 13 7.00045 13V13ZM25.0005 12C25.0005 12.2652 24.8951 12.5196 24.7076 12.7071C24.52 12.8947 24.2657 13 24.0005 13C22.807 13 21.6624 12.5259 20.8185 11.682C19.9746 10.8381 19.5005 9.6935 19.5005 8.50003V7.50003C19.5005 7.23481 19.6058 6.98046 19.7933 6.79292C19.9809 6.60539 20.2352 6.50003 20.5005 6.50003C20.7657 6.50003 21.02 6.60539 21.2076 6.79292C21.3951 6.98046 21.5005 7.23481 21.5005 7.50003V8.50003C21.5037 9.16206 21.7682 9.79603 22.2363 10.2642C22.7044 10.7323 23.3384 10.9967 24.0005 11C24.2657 11 24.52 11.1054 24.7076 11.2929C24.8951 11.4805 25.0005 11.7348 25.0005 12Z" fill="white"/>
</svg>
