<svg width="12" height="12" viewBox="0 0 12 12" fill="none" xmlns="http://www.w3.org/2000/svg">
<path id="Vector" d="M11.459 10.6454C11.5646 10.752 11.6239 10.8961 11.6239 11.0462C11.6239 11.1963 11.5646 11.3403 11.459 11.447C11.3515 11.5509 11.2078 11.609 11.0582 11.609C10.9087 11.609 10.765 11.5509 10.6574 11.447L5.99572 6.77821L1.334 11.447C1.22648 11.5509 1.08278 11.609 0.933218 11.609C0.783659 11.609 0.639953 11.5509 0.532437 11.447C0.426809 11.3403 0.367554 11.1963 0.367554 11.0462C0.367554 10.8961 0.426809 10.752 0.532437 10.6454L5.20119 5.98368L0.532437 1.32196C0.442739 1.21267 0.396899 1.07392 0.403835 0.932707C0.410771 0.79149 0.469985 0.657901 0.569961 0.557926C0.669937 0.45795 0.803526 0.398735 0.944742 0.391799C1.08596 0.384864 1.22471 0.430703 1.334 0.520401L5.99572 5.18915L10.6574 0.520401C10.7667 0.430703 10.9055 0.384864 11.0467 0.391799C11.1879 0.398735 11.3215 0.45795 11.4215 0.557926C11.5214 0.657901 11.5807 0.79149 11.5876 0.932707C11.5945 1.07392 11.5487 1.21267 11.459 1.32196L6.79025 5.98368L11.459 10.6454Z" fill="black"/>
</svg>
