<svg width="29" height="26" viewBox="0 0 29 26" fill="none" xmlns="http://www.w3.org/2000/svg">
<path id="Vector" d="M7.50049 5V1C7.50049 0.734784 7.60585 0.48043 7.79338 0.292893C7.98092 0.105357 8.23527 0 8.50049 0C8.7657 0 9.02006 0.105357 9.20759 0.292893C9.39513 0.48043 9.50049 0.734784 9.50049 1V5C9.50049 5.26522 9.39513 5.51957 9.20759 5.70711C9.02006 5.89464 8.7657 6 8.50049 6C8.23527 6 7.98092 5.89464 7.79338 5.70711C7.60585 5.51957 7.50049 5.26522 7.50049 5ZM12.5005 6C12.7657 6 13.0201 5.89464 13.2076 5.70711C13.3951 5.51957 13.5005 5.26522 13.5005 5V1C13.5005 0.734784 13.3951 0.48043 13.2076 0.292893C13.0201 0.105357 12.7657 0 12.5005 0C12.2353 0 11.9809 0.105357 11.7934 0.292893C11.6058 0.48043 11.5005 0.734784 11.5005 1V5C11.5005 5.26522 11.6058 5.51957 11.7934 5.70711C11.9809 5.89464 12.2353 6 12.5005 6ZM16.5005 6C16.7657 6 17.0201 5.89464 17.2076 5.70711C17.3951 5.51957 17.5005 5.26522 17.5005 5V1C17.5005 0.734784 17.3951 0.48043 17.2076 0.292893C17.0201 0.105357 16.7657 0 16.5005 0C16.2353 0 15.9809 0.105357 15.7934 0.292893C15.6058 0.48043 15.5005 0.734784 15.5005 1V5C15.5005 5.26522 15.6058 5.51957 15.7934 5.70711C15.9809 5.89464 16.2353 6 16.5005 6ZM28.5005 13V14C28.4998 15.2715 28.0147 16.495 27.1439 17.4215C26.2731 18.3481 25.082 18.908 23.813 18.9875C23.1242 20.9139 21.9639 22.6372 20.438 24H23.5005C23.7657 24 24.0201 24.1054 24.2076 24.2929C24.3951 24.4804 24.5005 24.7348 24.5005 25C24.5005 25.2652 24.3951 25.5196 24.2076 25.7071C24.0201 25.8946 23.7657 26 23.5005 26H1.50049C1.23527 26 0.980918 25.8946 0.793381 25.7071C0.605845 25.5196 0.500488 25.2652 0.500488 25C0.500488 24.7348 0.605845 24.4804 0.793381 24.2929C0.980918 24.1054 1.23527 24 1.50049 24H4.56299C3.28865 22.8718 2.26775 21.4865 1.56753 19.9352C0.867307 18.384 0.503644 16.702 0.500488 15V9C0.500488 8.73478 0.605845 8.48043 0.793381 8.29289C0.980918 8.10536 1.23527 8 1.50049 8H23.5005C24.8266 8 26.0983 8.52678 27.036 9.46447C27.9737 10.4021 28.5005 11.6739 28.5005 13ZM22.5005 10H2.50049V15C2.50455 16.8772 3.03497 18.7157 4.0315 20.3066C5.02802 21.8975 6.45072 23.1771 8.13799 24H16.863C18.1234 23.384 19.2407 22.5107 20.1428 21.4364C21.045 20.362 21.7118 19.1105 22.1005 17.7625C22.1144 17.7397 22.123 17.7141 22.1255 17.6875C22.3768 16.8139 22.503 15.909 22.5005 15V10ZM26.5005 13C26.4998 12.3802 26.3071 11.7758 25.949 11.27C25.5909 10.7641 25.0848 10.3816 24.5005 10.175V15C24.5013 15.628 24.4511 16.2551 24.3505 16.875C24.971 16.6917 25.5155 16.3127 25.903 15.7946C26.2905 15.2765 26.5 14.647 26.5005 14V13Z" fill="white"/>
</svg>
