<svg width="33" height="32" viewBox="0 0 33 32" fill="none" xmlns="http://www.w3.org/2000/svg">
<g id="ph:dots-three-outline-fill">
<path id="Vector" d="M20 16C20 16.6922 19.7947 17.3689 19.4101 17.9445C19.0256 18.5201 18.4789 18.9687 17.8394 19.2336C17.1999 19.4985 16.4961 19.5678 15.8172 19.4327C15.1383 19.2977 14.5146 18.9644 14.0251 18.4749C13.5356 17.9854 13.2023 17.3617 13.0673 16.6828C12.9322 16.0039 13.0015 15.3001 13.2664 14.6606C13.5313 14.0211 13.9799 13.4744 14.5555 13.0899C15.1311 12.7053 15.8078 12.5 16.5 12.5C17.4272 12.5033 18.3156 12.8731 18.9712 13.5288C19.6269 14.1844 19.9967 15.0728 20 16V16ZM6.5 12.5C5.80777 12.5 5.13108 12.7053 4.55551 13.0899C3.97993 13.4744 3.53133 14.0211 3.26642 14.6606C3.00152 15.3001 2.9322 16.0039 3.06725 16.6828C3.2023 17.3617 3.53564 17.9854 4.02513 18.4749C4.51461 18.9644 5.13825 19.2977 5.81719 19.4327C6.49612 19.5678 7.19985 19.4985 7.83939 19.2336C8.47894 18.9687 9.02556 18.5201 9.41015 17.9445C9.79473 17.3689 10 16.6922 10 16C9.99671 15.0728 9.6269 14.1844 8.97124 13.5288C8.31557 12.8731 7.42725 12.5033 6.5 12.5V12.5ZM26.5 12.5C25.8078 12.5 25.1311 12.7053 24.5555 13.0899C23.9799 13.4744 23.5313 14.0211 23.2664 14.6606C23.0015 15.3001 22.9322 16.0039 23.0673 16.6828C23.2023 17.3617 23.5356 17.9854 24.0251 18.4749C24.5146 18.9644 25.1383 19.2977 25.8172 19.4327C26.4961 19.5678 27.1999 19.4985 27.8394 19.2336C28.4789 18.9687 29.0256 18.5201 29.4101 17.9445C29.7947 17.3689 30 16.6922 30 16C29.9967 15.0728 29.6269 14.1844 28.9712 13.5288C28.3156 12.8731 27.4272 12.5033 26.5 12.5Z" fill="white"/>
</g>
</svg>
