<svg width="33" height="32" viewBox="0 0 33 32" fill="none" xmlns="http://www.w3.org/2000/svg">
<g id="ph:dots-three-outline-fill">
<path id="Vector" d="M16.5 19.5C15.8078 19.5 15.1311 19.2947 14.5555 18.9101C13.9799 18.5256 13.5313 17.9789 13.2664 17.3394C13.0015 16.6999 12.9322 15.9961 13.0673 15.3172C13.2023 14.6383 13.5356 14.0146 14.0251 13.5251C14.5146 13.0356 15.1383 12.7023 15.8172 12.5673C16.4961 12.4322 17.1999 12.5015 17.8394 12.7664C18.4789 13.0313 19.0256 13.4799 19.4101 14.0555C19.7947 14.6311 20 15.3078 20 16C19.9967 16.9272 19.6269 17.8156 18.9712 18.4712C18.3156 19.1269 17.4272 19.4967 16.5 19.5V19.5ZM20 6C20 5.30777 19.7947 4.63108 19.4101 4.05551C19.0256 3.47993 18.4789 3.03133 17.8394 2.76642C17.1999 2.50152 16.4961 2.4322 15.8172 2.56725C15.1383 2.7023 14.5146 3.03564 14.0251 3.52513C13.5356 4.01461 13.2023 4.63825 13.0673 5.31719C12.9322 5.99612 13.0015 6.69985 13.2664 7.33939C13.5313 7.97894 13.9799 8.52556 14.5555 8.91015C15.1311 9.29473 15.8078 9.5 16.5 9.5C17.4272 9.49671 18.3156 9.1269 18.9712 8.47124C19.6269 7.81557 19.9967 6.92725 20 6V6ZM20 26C20 25.3078 19.7947 24.6311 19.4101 24.0555C19.0256 23.4799 18.4789 23.0313 17.8394 22.7664C17.1999 22.5015 16.4961 22.4322 15.8172 22.5673C15.1383 22.7023 14.5146 23.0356 14.0251 23.5251C13.5356 24.0146 13.2023 24.6383 13.0673 25.3172C12.9322 25.9961 13.0015 26.6999 13.2664 27.3394C13.5313 27.9789 13.9799 28.5256 14.5555 28.9101C15.1311 29.2947 15.8078 29.5 16.5 29.5C17.4272 29.4967 18.3156 29.1269 18.9712 28.4712C19.6269 27.8156 19.9967 26.9272 20 26Z" fill="white"/>
</g>
</svg>
