<svg width="25" height="24" viewBox="0 0 25 24" fill="none" xmlns="http://www.w3.org/2000/svg">
<g id="mdi:hide">
<path id="Vector" d="M12.2256 9L15.3956 12.16V12C15.3956 11.2044 15.0796 10.4413 14.517 9.87868C13.9543 9.31607 13.1913 9 12.3956 9H12.2256ZM7.92563 9.8L9.47563 11.35C9.42563 11.56 9.39563 11.77 9.39563 12C9.39563 12.7956 9.7117 13.5587 10.2743 14.1213C10.8369 14.6839 11.6 15 12.3956 15C12.6156 15 12.8356 14.97 13.0456 14.92L14.5956 16.47C13.9256 16.8 13.1856 17 12.3956 17C11.0695 17 9.79778 16.4732 8.8601 15.5355C7.92241 14.5979 7.39563 13.3261 7.39563 12C7.39563 11.21 7.59563 10.47 7.92563 9.8ZM2.39563 4.27L4.67563 6.55L5.12563 7C3.47563 8.3 2.17563 10 1.39563 12C3.12563 16.39 7.39563 19.5 12.3956 19.5C13.9456 19.5 15.4256 19.2 16.7756 18.66L17.2056 19.08L20.1256 22L21.3956 20.73L3.66563 3M12.3956 7C13.7217 7 14.9935 7.52678 15.9312 8.46447C16.8688 9.40215 17.3956 10.6739 17.3956 12C17.3956 12.64 17.2656 13.26 17.0356 13.82L19.9656 16.75C21.4656 15.5 22.6656 13.86 23.3956 12C21.6656 7.61 17.3956 4.5 12.3956 4.5C10.9956 4.5 9.65563 4.75 8.39563 5.2L10.5656 7.35C11.1356 7.13 11.7456 7 12.3956 7Z" fill="black"/>
</g>
</svg>
