<svg width="19" height="18" viewBox="0 0 19 18" fill="none" xmlns="http://www.w3.org/2000/svg">
<g id="Log Out">
<path id="Vector" d="M2.73767 2H8.73767C9.28767 2 9.73767 1.55 9.73767 1C9.73767 0.45 9.28767 0 8.73767 0H2.73767C1.63767 0 0.737671 0.9 0.737671 2V16C0.737671 17.1 1.63767 18 2.73767 18H8.73767C9.28767 18 9.73767 17.55 9.73767 17C9.73767 16.45 9.28767 16 8.73767 16H2.73767V2Z" fill="white"/>
<path id="Vector_2" d="M18.3877 8.65004L15.5977 5.86004C15.5281 5.78859 15.4388 5.73952 15.3412 5.71911C15.2436 5.69869 15.1422 5.70787 15.0498 5.74545C14.9575 5.78304 14.8784 5.84733 14.8228 5.93009C14.7672 6.01286 14.7376 6.11033 14.7377 6.21004V8.00004H7.73767C7.18767 8.00004 6.73767 8.45004 6.73767 9.00004C6.73767 9.55004 7.18767 10 7.73767 10H14.7377V11.79C14.7377 12.24 15.2777 12.46 15.5877 12.14L18.3777 9.35004C18.5777 9.16004 18.5777 8.84004 18.3877 8.65004Z" fill="white"/>
</g>
</svg>
