<svg width="22" height="22" viewBox="0 0 22 22" fill="none" xmlns="http://www.w3.org/2000/svg">
<path id="setting" d="M21.4986 8.77661C21.4753 8.67177 21.4298 8.57315 21.3651 8.48743C21.3004 8.40171 21.218 8.33088 21.1236 8.27974L18.8924 7.04224C18.7727 6.7997 18.6381 6.56487 18.4892 6.33911L18.5361 3.78911C18.537 3.68216 18.5158 3.57617 18.4738 3.47778C18.4319 3.37938 18.3701 3.29069 18.2924 3.21724C17.1814 2.20996 15.8675 1.45233 14.4392 0.995362C14.3367 0.963379 14.2285 0.953527 14.1218 0.966455C14.0151 0.979384 13.9124 1.0148 13.8205 1.07036L11.6361 2.38286C11.3642 2.37349 11.1017 2.37349 10.8299 2.38286L8.64548 1.07036C8.55352 1.0148 8.45082 0.979384 8.34416 0.966455C8.23749 0.953527 8.1293 0.963379 8.02673 0.995362C6.59654 1.45268 5.28214 2.21382 4.17361 3.22661C4.09518 3.29754 4.03284 3.38443 3.9908 3.48146C3.94876 3.57848 3.92798 3.68339 3.92986 3.78911L3.97673 6.33911C3.82673 6.56411 3.69548 6.79849 3.56423 7.04224L1.33298 8.27974C1.23991 8.33142 1.15907 8.40255 1.09597 8.4883C1.03288 8.57404 0.989009 8.67238 0.967357 8.77661C0.648576 10.2407 0.648576 11.7563 0.967357 13.2204C0.990644 13.3252 1.03618 13.4238 1.10087 13.5095C1.16557 13.5953 1.24792 13.6661 1.34236 13.7172L3.57361 14.9547C3.69322 15.1973 3.82785 15.4321 3.97673 15.6579L3.92986 18.2079C3.929 18.3148 3.9502 18.4208 3.99214 18.5192C4.03408 18.6176 4.09585 18.7063 4.17361 18.7797C5.28458 19.787 6.59843 20.5446 8.02673 21.0016C8.1293 21.0336 8.23749 21.0434 8.34416 21.0305C8.45082 21.0176 8.55352 20.9822 8.64548 20.9266L10.8299 19.6141H11.6361L13.8299 20.9266C13.9439 21.0016 14.0778 21.0408 14.2142 21.0391C14.2905 21.0358 14.366 21.0232 14.4392 21.0016C15.8694 20.5443 17.1838 19.7832 18.2924 18.7704C18.3708 18.6994 18.4331 18.6125 18.4752 18.5155C18.5172 18.4185 18.538 18.3136 18.5361 18.2079L18.4892 15.6579C18.6392 15.4329 18.7705 15.1985 18.9017 14.9547L21.133 13.7172C21.2261 13.6656 21.3069 13.5944 21.37 13.5087C21.4331 13.4229 21.477 13.3246 21.4986 13.2204C21.8174 11.7563 21.8174 10.2407 21.4986 8.77661ZM11.233 15.1235C10.4171 15.1235 9.61961 14.8816 8.94125 14.4283C8.2629 13.975 7.73419 13.3308 7.42198 12.5771C7.10977 11.8233 7.02808 10.9939 7.18724 10.1937C7.34641 9.39357 7.73927 8.65856 8.31617 8.08167C8.89306 7.50478 9.62806 7.11191 10.4282 6.95275C11.2284 6.79358 12.0578 6.87527 12.8116 7.18749C13.5653 7.4997 14.2095 8.02841 14.6628 8.70676C15.1161 9.38511 15.358 10.1826 15.358 10.9985C15.358 12.0925 14.9234 13.1417 14.1498 13.9153C13.3762 14.6889 12.327 15.1235 11.233 15.1235Z" fill="white"/>
</svg>
