<svg width="25" height="24" viewBox="0 0 25 24" fill="none" xmlns="http://www.w3.org/2000/svg">
<g id="mdi:show">
<path id="Vector" d="M12.3956 9C11.6 9 10.8369 9.31607 10.2743 9.87868C9.7117 10.4413 9.39563 11.2044 9.39563 12C9.39563 12.7956 9.7117 13.5587 10.2743 14.1213C10.8369 14.6839 11.6 15 12.3956 15C13.1913 15 13.9543 14.6839 14.517 14.1213C15.0796 13.5587 15.3956 12.7956 15.3956 12C15.3956 11.2044 15.0796 10.4413 14.517 9.87868C13.9543 9.31607 13.1913 9 12.3956 9ZM12.3956 17C11.0695 17 9.79778 16.4732 8.8601 15.5355C7.92241 14.5979 7.39563 13.3261 7.39563 12C7.39563 10.6739 7.92241 9.40215 8.8601 8.46447C9.79778 7.52678 11.0695 7 12.3956 7C13.7217 7 14.9935 7.52678 15.9312 8.46447C16.8688 9.40215 17.3956 10.6739 17.3956 12C17.3956 13.3261 16.8688 14.5979 15.9312 15.5355C14.9935 16.4732 13.7217 17 12.3956 17ZM12.3956 4.5C7.39563 4.5 3.12563 7.61 1.39563 12C3.12563 16.39 7.39563 19.5 12.3956 19.5C17.3956 19.5 21.6656 16.39 23.3956 12C21.6656 7.61 17.3956 4.5 12.3956 4.5Z" fill="black"/>
</g>
</svg>
