<svg width="23" height="26" viewBox="0 0 23 26" fill="none" xmlns="http://www.w3.org/2000/svg">
<path id="Vector" d="M22.5 13C22.4993 13.3439 22.4104 13.6818 22.2419 13.9816C22.0734 14.2814 21.8309 14.533 21.5375 14.7125L3.53751 25.7C3.23768 25.89 2.89141 25.9939 2.53651 26.0006C2.18161 26.0072 1.83171 25.9162 1.52501 25.7375C1.21377 25.5667 0.954317 25.3152 0.77394 25.0095C0.593562 24.7037 0.498933 24.355 0.500009 24V1.99996C0.498933 1.64496 0.593562 1.29623 0.77394 0.990471C0.954317 0.684709 1.21377 0.433218 1.52501 0.26246C1.83171 0.0837584 2.18161 -0.00725329 2.53651 -0.000640198C2.89141 0.00597289 3.23768 0.109956 3.53751 0.29996L21.5375 11.2875C21.8309 11.4669 22.0734 11.7185 22.2419 12.0183C22.4104 12.3181 22.4993 12.6561 22.5 13V13Z" fill="white"/>
</svg>
