<svg width="23" height="24" viewBox="0 0 23 24" fill="none" xmlns="http://www.w3.org/2000/svg">
<path id="Vector" d="M22.5 2V22C22.5 22.5304 22.2893 23.0391 21.9142 23.4142C21.5391 23.7893 21.0304 24 20.5 24H16C15.4696 24 14.9609 23.7893 14.5858 23.4142C14.2107 23.0391 14 22.5304 14 22V2C14 1.46957 14.2107 0.960859 14.5858 0.585786C14.9609 0.210714 15.4696 0 16 0H20.5C21.0304 0 21.5391 0.210714 21.9142 0.585786C22.2893 0.960859 22.5 1.46957 22.5 2ZM7 0H2.5C1.96957 0 1.46086 0.210714 1.08579 0.585786C0.710714 0.960859 0.5 1.46957 0.5 2V22C0.5 22.5304 0.710714 23.0391 1.08579 23.4142C1.46086 23.7893 1.96957 24 2.5 24H7C7.53043 24 8.03914 23.7893 8.41421 23.4142C8.78929 23.0391 9 22.5304 9 22V2C9 1.46957 8.78929 0.960859 8.41421 0.585786C8.03914 0.210714 7.53043 0 7 0V0Z" fill="white"/>
</svg>
